<svg width="81" height="28" fill="none" xmlns="http://www.w3.org/2000/svg"><path d="M0 27V0h9l4 1 3 2a8 8 0 0 1 2 6 8 8 0 0 1-5 7l-4 1H4v10H0Zm9-14 2-1a4 4 0 0 0 3-2 4 4 0 0 0-1-4 4 4 0 0 0-4-2H4v9h5ZM21 9v18h5V9h-5Z" fill="#191919"/><path d="M26 3a3 3 0 0 1 0 2 3 3 0 0 1-2 1V0a3 3 0 0 1 2 1 3 3 0 0 1 0 2ZM24 0v6a3 3 0 0 1-2-1 3 3 0 0 1-1-2 3 3 0 0 1 1-2 3 3 0 0 1 2-1Z" fill="#35AF39"/><path d="m35 18-7-9h5l4 6 4-6h5l-6 9 6 9h-5l-4-6-4 6h-5l7-9ZM65 23l-3 4-5 1-4-1a9 9 0 0 1-5-5l-1-4a11 11 0 0 1 3-7 9 9 0 0 1 7-3l3 1a8 8 0 0 1 5 5l1 4v1H51l1 2 1 2 2 1h2l3-1 2-2 3 2Zm-4-7v-1l-1-2a5 5 0 0 0-4-1l-3 1-1 3h9ZM69 9h4v3l1-2 1-1h2l1-1h2l1 1-1 4-1-1h-1l-2 1-2 1-1 2v11h-4V9Z" fill="#191919"/></svg>